<?xml version="1.0" standalone="no"?>
<!DOCTYPE svg PUBLIC "-//W3C//DTD SVG 20010904//EN"
 "http://www.w3.org/TR/2001/REC-SVG-20010904/DTD/svg10.dtd">
<svg version="1.0" xmlns="http://www.w3.org/2000/svg"
 width="900.000000pt" height="820.000000pt" viewBox="0 0 900.000000 820.000000"
 preserveAspectRatio="xMidYMid meet">

<g transform="translate(0.000000,820.000000) scale(0.100000,-0.100000)"
fill="#000000" stroke="none">
<path d="M4280 8185 c-517 -67 -989 -309 -1370 -701 -181 -186 -317 -369 -440
-594 -201 -363 -357 -885 -420 -1400 -18 -143 -24 -590 -11 -754 38 -462 140
-896 318 -1351 60 -153 224 -497 303 -635 l50 -87 -26 -58 c-40 -87 -54 -151
-54 -255 0 -195 75 -355 226 -480 198 -163 508 -173 727 -23 131 89 225 235
253 393 58 329 -156 640 -485 706 -56 11 -108 15 -151 11 l-67 -6 -66 122
c-268 492 -414 950 -484 1517 -22 178 -25 700 -5 880 50 459 175 861 376 1214
106 187 237 367 346 476 371 372 1084 593 1558 485 365 -84 673 -316 927 -700
218 -330 379 -754 434 -1139 l17 -121 174 -50 c96 -28 217 -65 269 -83 52 -17
97 -30 100 -27 8 8 -18 237 -46 400 -78 471 -246 912 -482 1266 -359 540 -852
878 -1436 984 -123 23 -401 28 -535 10z"/>
<path d="M3842 5660 c-200 -54 -359 -207 -428 -410 -29 -86 -27 -272 5 -369
113 -345 509 -516 838 -362 117 55 226 159 283 272 18 34 22 36 81 43 148 15
445 2 689 -30 738 -97 1448 -400 2035 -868 131 -104 361 -335 463 -464 268
-338 455 -724 529 -1090 25 -124 25 -434 0 -551 -42 -193 -111 -356 -224 -530
-274 -421 -672 -662 -1193 -722 -129 -14 -423 -6 -565 16 -215 34 -518 118
-677 188 l-36 17 -91 -78 c-50 -43 -158 -130 -240 -193 -82 -62 -148 -118
-147 -124 1 -5 63 -35 137 -66 661 -276 1296 -339 1904 -190 581 143 1093 488
1388 936 198 302 288 653 274 1075 -19 569 -229 1107 -627 1605 -136 170 -460
494 -627 627 -806 641 -1789 967 -2918 968 l-160 0 -30 47 c-67 106 -188 200
-315 244 -93 32 -249 36 -348 9z"/>
<path d="M1458 4300 c-622 -485 -1000 -1077 -1119 -1755 -39 -229 -37 -585 7
-813 107 -560 364 -962 801 -1254 202 -135 533 -273 788 -328 429 -92 829 -87
1300 16 961 211 1757 669 2364 1360 238 270 380 480 612 898 l44 79 73 18
c224 56 400 238 447 464 42 200 -20 409 -164 553 -242 242 -620 243 -862 2
-119 -119 -179 -261 -179 -425 0 -142 39 -259 125 -374 l47 -64 -17 -36 c-71
-151 -281 -465 -427 -639 -338 -403 -821 -768 -1393 -1054 -482 -242 -958
-351 -1455 -335 -343 11 -582 64 -827 184 -296 143 -508 359 -667 679 -231
464 -228 945 8 1440 152 318 384 603 729 895 l27 24 -33 115 c-19 63 -51 186
-72 273 -21 86 -42 157 -46 157 -4 0 -54 -36 -111 -80z"/>
</g>
</svg>
