<?xml version="1.0" encoding="UTF-8"?>
<svg xmlns="http://www.w3.org/2000/svg" xmlns:xlink="http://www.w3.org/1999/xlink" width="70px" height="64px" viewBox="0 0 70 64" version="1.1">
<g id="surface1">
<path style=" stroke:none;fill-rule:nonzero;fill:rgb(0%,0%,0%);fill-opacity:1;" d="M 33.289062 0.117188 C 29.269531 0.640625 25.597656 2.527344 22.632812 5.589844 C 21.226562 7.039062 20.167969 8.46875 19.210938 10.222656 C 17.648438 13.058594 16.433594 17.132812 15.945312 21.152344 C 15.804688 22.265625 15.757812 25.757812 15.859375 27.035156 C 16.15625 30.640625 16.949219 34.027344 18.332031 37.582031 C 18.800781 38.773438 20.074219 41.460938 20.6875 42.535156 L 21.078125 43.214844 L 20.875 43.667969 C 20.5625 44.347656 20.457031 44.847656 20.457031 45.660156 C 20.457031 47.179688 21.039062 48.429688 22.214844 49.40625 C 23.753906 50.675781 26.164062 50.753906 27.867188 49.585938 C 28.886719 48.890625 29.617188 47.75 29.835938 46.515625 C 30.285156 43.949219 28.621094 41.523438 26.0625 41.007812 C 25.628906 40.921875 25.222656 40.890625 24.890625 40.921875 L 24.367188 40.96875 L 23.855469 40.015625 C 21.769531 36.175781 20.632812 32.601562 20.089844 28.175781 C 19.917969 26.785156 19.894531 22.710938 20.050781 21.308594 C 20.441406 17.726562 21.414062 14.585938 22.976562 11.832031 C 23.800781 10.371094 24.820312 8.96875 25.667969 8.117188 C 28.550781 5.214844 34.097656 3.488281 37.785156 4.332031 C 40.625 4.988281 43.019531 6.796875 44.996094 9.796875 C 46.691406 12.371094 47.941406 15.679688 48.371094 18.683594 L 48.503906 19.628906 L 49.855469 20.019531 C 50.601562 20.238281 51.542969 20.527344 51.949219 20.667969 C 52.351562 20.800781 52.703125 20.902344 52.726562 20.878906 C 52.789062 20.816406 52.585938 19.027344 52.367188 17.757812 C 51.761719 14.078125 50.453125 10.636719 48.617188 7.875 C 45.828125 3.660156 41.992188 1.023438 37.449219 0.195312 C 36.492188 0.015625 34.332031 -0.0234375 33.289062 0.117188 Z M 33.289062 0.117188 "/>
<path style=" stroke:none;fill-rule:nonzero;fill:rgb(0%,0%,0%);fill-opacity:1;" d="M 29.882812 19.824219 C 28.328125 20.246094 27.089844 21.441406 26.554688 23.023438 C 26.328125 23.695312 26.34375 25.148438 26.59375 25.90625 C 27.472656 28.597656 30.550781 29.933594 33.109375 28.730469 C 34.019531 28.300781 34.867188 27.488281 35.3125 26.605469 C 35.449219 26.339844 35.480469 26.324219 35.941406 26.269531 C 37.09375 26.152344 39.402344 26.253906 41.300781 26.503906 C 47.039062 27.261719 52.5625 29.628906 57.128906 33.28125 C 58.148438 34.089844 59.9375 35.894531 60.730469 36.902344 C 62.8125 39.539062 64.269531 42.550781 64.84375 45.410156 C 65.039062 46.375 65.039062 48.796875 64.84375 49.710938 C 64.515625 51.214844 63.980469 52.488281 63.101562 53.847656 C 60.96875 57.132812 57.875 59.011719 53.820312 59.480469 C 52.820312 59.589844 50.53125 59.527344 49.429688 59.355469 C 47.753906 59.089844 45.398438 58.433594 44.164062 57.890625 L 43.882812 57.757812 L 43.175781 58.363281 C 42.785156 58.699219 41.945312 59.378906 41.308594 59.871094 C 40.671875 60.355469 40.15625 60.792969 40.164062 60.839844 C 40.171875 60.878906 40.65625 61.113281 41.230469 61.355469 C 46.371094 63.507812 51.308594 64 56.039062 62.835938 C 60.558594 61.722656 64.539062 59.027344 66.835938 55.53125 C 68.375 53.175781 69.074219 50.433594 68.964844 47.140625 C 68.816406 42.699219 67.183594 38.5 64.089844 34.613281 C 63.03125 33.289062 60.511719 30.757812 59.210938 29.722656 C 52.941406 24.71875 45.296875 22.171875 36.515625 22.164062 L 35.273438 22.164062 L 35.039062 21.800781 C 34.519531 20.972656 33.578125 20.238281 32.589844 19.894531 C 31.867188 19.644531 30.652344 19.613281 29.882812 19.824219 Z M 29.882812 19.824219 "/>
<path style=" stroke:none;fill-rule:nonzero;fill:rgb(0%,0%,0%);fill-opacity:1;" d="M 11.339844 30.4375 C 6.503906 34.222656 3.5625 38.84375 2.636719 44.136719 C 2.332031 45.925781 2.347656 48.703125 2.691406 50.480469 C 3.523438 54.851562 5.523438 57.992188 8.921875 60.269531 C 10.492188 61.324219 13.066406 62.398438 15.050781 62.828125 C 18.386719 63.546875 21.496094 63.507812 25.160156 62.703125 C 32.636719 61.058594 38.828125 57.484375 43.546875 52.089844 C 45.398438 49.984375 46.503906 48.34375 48.308594 45.082031 L 48.648438 44.464844 L 49.21875 44.324219 C 50.960938 43.886719 52.328125 42.464844 52.695312 40.703125 C 53.019531 39.140625 52.539062 37.511719 51.417969 36.386719 C 49.535156 34.496094 46.597656 34.488281 44.714844 36.371094 C 43.789062 37.300781 43.320312 38.40625 43.320312 39.6875 C 43.320312 40.796875 43.625 41.710938 44.292969 42.605469 L 44.660156 43.105469 L 44.527344 43.386719 C 43.976562 44.566406 42.34375 47.015625 41.207031 48.375 C 38.578125 51.519531 34.820312 54.367188 30.371094 56.601562 C 26.625 58.488281 22.921875 59.339844 19.054688 59.214844 C 16.386719 59.128906 14.527344 58.714844 12.625 57.78125 C 10.320312 56.664062 8.671875 54.976562 7.4375 52.480469 C 5.640625 48.859375 5.664062 45.105469 7.496094 41.242188 C 8.679688 38.757812 10.484375 36.535156 13.167969 34.253906 L 13.378906 34.066406 L 13.121094 33.171875 C 12.972656 32.679688 12.722656 31.71875 12.5625 31.039062 C 12.398438 30.367188 12.234375 29.816406 12.203125 29.816406 C 12.171875 29.816406 11.785156 30.09375 11.339844 30.4375 Z M 11.339844 30.4375 "/>
</g>
</svg>
